<svg width="20" height="21" viewBox="0 0 20 21" fill="none" xmlns="http://www.w3.org/2000/svg">
<path d="M9.98676 5.17505C6.94223 5.17505 3.81918 6.93716 1.36058 10.4614C1.29041 10.5631 1.25195 10.6833 1.25007 10.8068C1.24819 10.9304 1.28298 11.0517 1.35004 11.1555C3.2391 14.1125 6.32035 16.425 9.98676 16.425C13.6133 16.425 16.7578 14.1055 18.6504 11.1418C18.7159 11.0401 18.7507 10.9216 18.7507 10.8006C18.7507 10.6796 18.7159 10.5612 18.6504 10.4594C16.7536 7.52974 13.586 5.17505 9.98676 5.17505Z" stroke="#656565" stroke-width="2" stroke-linecap="round" stroke-linejoin="round"/>
<path d="M10 13.925C11.7259 13.925 13.125 12.5259 13.125 10.8C13.125 9.07416 11.7259 7.67505 10 7.67505C8.27411 7.67505 6.875 9.07416 6.875 10.8C6.875 12.5259 8.27411 13.925 10 13.925Z" stroke="#656565" stroke-width="2" stroke-miterlimit="10"/>
</svg>
