<svg width="37" height="20" viewBox="0 0 37 20" fill="none" xmlns="http://www.w3.org/2000/svg">
<path d="M1 3.15015H36" stroke="white" stroke-linecap="round"/>
<path d="M12.1666 3.15C12.1666 4.61943 10.9917 5.8 9.55545 5.8C8.11921 5.8 6.94434 4.61943 6.94434 3.15C6.94434 1.68057 8.11921 0.5 9.55545 0.5C10.9917 0.5 12.1666 1.68057 12.1666 3.15Z" fill="white" stroke="white"/>
<path d="M35.9999 10.2375L1.00001 10.3366" stroke="white" stroke-linecap="round"/>
<path d="M1 16.5374H36" stroke="white" stroke-linecap="round"/>
<path d="M12.1666 16.5376C12.1666 18.007 10.9917 19.1876 9.55545 19.1876C8.11921 19.1876 6.94434 18.007 6.94434 16.5376C6.94434 15.0681 8.11921 13.8876 9.55545 13.8876C10.9917 13.8876 12.1666 15.0681 12.1666 16.5376Z" fill="white" stroke="white"/>
<path d="M24.0643 10.2538C24.0602 8.78436 25.2318 7.60047 26.6681 7.5964C28.1043 7.59234 29.2824 8.76958 29.2865 10.239C29.2905 11.7084 28.1189 12.8923 26.6827 12.8964C25.2465 12.9004 24.0683 11.7232 24.0643 10.2538Z" fill="white" stroke="white"/>
</svg>
