<svg width="100" height="99" viewBox="0 0 100 99" fill="none" xmlns="http://www.w3.org/2000/svg">
<path d="M50 98.3333C77.6142 98.3333 100 76.3207 100 49.1667C100 22.0127 77.6142 0 50 0C22.3858 0 0 22.0127 0 49.1667C0 76.3207 22.3858 98.3333 50 98.3333Z" fill="#FFDD67"/>
<path opacity="0.8" d="M81.3333 68.8333C88.6971 68.8333 94.6667 62.9633 94.6667 55.7222C94.6667 48.4811 88.6971 42.6111 81.3333 42.6111C73.9695 42.6111 68 48.4811 68 55.7222C68 62.9633 73.9695 68.8333 81.3333 68.8333Z" fill="#FF717F"/>
<path opacity="0.8" d="M18.6667 68.8333C26.0305 68.8333 32 62.9633 32 55.7222C32 48.4811 26.0305 42.6111 18.6667 42.6111C11.3029 42.6111 5.33337 48.4811 5.33337 55.7222C5.33337 62.9633 11.3029 68.8333 18.6667 68.8333Z" fill="#FF717F"/>
<path d="M71 62.7694C57.5 72.1111 42.5 71.9472 29 62.7694C27.3333 61.6222 26 63.5889 27 65.3917C31.1666 71.9472 39.3333 78.0111 50 78.0111C60.6666 78.0111 68.8333 72.1111 73 65.3917C74 63.5889 72.6666 61.6222 71 62.7694Z" fill="#664E27"/>
<path d="M44.1668 40.8082C41.0001 32.4498 36.3334 28.1887 31.6668 28.1887C27.0001 28.1887 22.3334 32.4498 19.1668 40.8082C18.8334 41.6276 20.5001 43.1026 21.3334 42.2832C24.3334 39.1693 28.0001 37.8582 31.6668 37.8582C35.3334 37.8582 39.0001 39.1693 42.0001 42.2832C43.0001 43.1026 44.5001 41.6276 44.1668 40.8082Z" fill="#664E27"/>
<path d="M80.6668 40.8082C77.5001 32.4498 72.8334 28.1887 68.1668 28.1887C63.5001 28.1887 58.8334 32.4498 55.6668 40.8082C55.3334 41.6276 57.0001 43.1026 57.8334 42.2832C60.8334 39.1693 64.5001 37.8582 68.1668 37.8582C71.8334 37.8582 75.5001 39.1693 78.5001 42.2832C79.3334 43.1026 81.0001 41.6276 80.6668 40.8082Z" fill="#664E27"/>
</svg>
